<?xml version="1.0" encoding="UTF-8" standalone="no"?>
<!-- Created with Inkscape (http://www.inkscape.org/) -->

<svg
   xmlns:dc="http://purl.org/dc/elements/1.1/"
   xmlns:cc="http://creativecommons.org/ns#"
   xmlns:rdf="http://www.w3.org/1999/02/22-rdf-syntax-ns#"
   xmlns:svg="http://www.w3.org/2000/svg"
   xmlns="http://www.w3.org/2000/svg"
   xmlns:sodipodi="http://sodipodi.sourceforge.net/DTD/sodipodi-0.dtd"
   xmlns:inkscape="http://www.inkscape.org/namespaces/inkscape"
   width="744.09448819"
   height="1052.3622047"
   id="svg2"
   version="1.1"
   inkscape:version="0.47pre4 r22446"
   sodipodi:docname="New document 1">
  <defs
     id="defs4">
    <inkscape:perspective
       sodipodi:type="inkscape:persp3d"
       inkscape:vp_x="0 : 526.18109 : 1"
       inkscape:vp_y="0 : 1000 : 0"
       inkscape:vp_z="744.09448 : 526.18109 : 1"
       inkscape:persp3d-origin="372.04724 : 350.78739 : 1"
       id="perspective10" />
  </defs>
  <sodipodi:namedview
     id="base"
     pagecolor="#ffffff"
     bordercolor="#666666"
     borderopacity="1.0"
     inkscape:pageopacity="0.0"
     inkscape:pageshadow="2"
     inkscape:zoom="1.0427083"
     inkscape:cx="216.46695"
     inkscape:cy="451.67106"
     inkscape:document-units="px"
     inkscape:current-layer="layer1"
     showgrid="false"
     inkscape:window-width="1600"
     inkscape:window-height="825"
     inkscape:window-x="0"
     inkscape:window-y="0"
     inkscape:window-maximized="1" />
  <metadata
     id="metadata7">
    <rdf:RDF>
      <cc:Work
         rdf:about="">
        <dc:format>image/svg+xml</dc:format>
        <dc:type
           rdf:resource="http://purl.org/dc/dcmitype/StillImage" />
        <dc:title></dc:title>
      </cc:Work>
    </rdf:RDF>
  </metadata>
  <g
     inkscape:label="Layer 1"
     inkscape:groupmode="layer"
     id="layer1">
    <path
       style="fill:#000000;fill-opacity:0;stroke:#000000;stroke-width:1.82217777;stroke-miterlimit:4;stroke-opacity:1;stroke-dasharray:none"
       d=""
       id="path3649" />
    <path
       style="fill:#000000;fill-opacity:0;stroke:#000000;stroke-width:1.82217777;stroke-miterlimit:4;stroke-opacity:1;stroke-dasharray:none"
       d=""
       id="path3665" />
    <path
       style="fill:#000000;fill-opacity:0;stroke:#000000;stroke-width:1.82217777;stroke-miterlimit:4;stroke-opacity:1;stroke-dasharray:none"
       d=""
       id="path3669" />
    <g
       id="g3752"
       transform="translate(-12.467532,8.6313686)">
      <g
         transform="translate(140.97902,122.75724)"
         id="g3702">
        <path
           sodipodi:type="arc"
           style="fill:#000000;fill-opacity:0;stroke:#000000;stroke-width:6;stroke-miterlimit:4;stroke-opacity:1;stroke-dasharray:none"
           id="path3619"
           sodipodi:cx="534.18579"
           sodipodi:cy="410.28427"
           sodipodi:rx="11.508492"
           sodipodi:ry="14.865135"
           d="m 545.69428,410.28427 c 0,8.20979 -5.15252,14.86514 -11.50849,14.86514 -6.35596,0 -11.50849,-6.65535 -11.50849,-14.86514 0,-8.20979 5.15253,-14.86513 11.50849,-14.86513 6.35597,0 11.50849,6.65534 11.50849,14.86513 z"
           transform="matrix(0.18438643,0,0,1.1104927,424.66021,-45.3334)" />
        <path
           style="fill:#000000;fill-opacity:1;stroke:#000000;stroke-width:1.82217777;stroke-miterlimit:4;stroke-opacity:1;stroke-dasharray:none"
           d="m 160.76666,440.44725 c -0.315,-0.50968 -0.84048,-15.35459 -1.16773,-32.98869 l -0.59501,-32.06199 6.1461,0.42482 c 21.0209,1.45294 318.13292,15.88375 336.71198,16.35418 12.49254,0.31632 23.27532,0.92221 23.96171,1.34642 1.53683,0.94981 2.40644,26.41519 1.07733,31.54826 l -0.86913,3.35664 -10.01526,0.72912 c -12.4876,0.90911 -332.66026,12.24633 -345.38322,12.22992 -5.11172,-0.007 -9.55177,-0.429 -9.86677,-0.93868 z m 350.49479,-28.56382 c -0.009,-0.95777 -0.32198,-1.26658 -0.73044,-0.71928 -0.39366,0.52748 -1.10633,1.28272 -1.58371,1.67833 -0.47739,0.3956 -0.14868,0.71928 0.73043,0.71928 0.88852,0 1.59188,-0.74538 1.58372,-1.67833 l 0,0 z m -2.33229,-1.11689 c -0.29816,-0.48242 -0.21574,-1.05784 0.18316,-1.27872 0.39889,-0.22087 0.32065,-0.33865 -0.17385,-0.26173 -1.32832,0.20663 -1.843,2.41758 -0.56278,2.41758 0.60256,0 0.85162,-0.3947 0.55347,-0.87713 z"
           id="path3681" />
        <path
           sodipodi:type="arc"
           style="fill:#000000;fill-opacity:1;fill-rule:nonzero;stroke:#000000;stroke-width:1.89999998;stroke-miterlimit:4;stroke-opacity:1;stroke-dasharray:none"
           id="path3683"
           sodipodi:cx="120.35964"
           sodipodi:cy="408.8457"
           sodipodi:rx="35.964035"
           sodipodi:ry="35.484516"
           d="m 156.32368,408.8457 c 0,19.59756 -16.10165,35.48452 -35.96404,35.48452 -19.86239,0 -35.964033,-15.88696 -35.964033,-35.48452 0,-19.59755 16.101643,-35.48451 35.964033,-35.48451 19.86239,0 35.96404,15.88696 35.96404,35.48451 z"
           transform="matrix(1.0010652,0,0,0.91999848,42.069599,32.290196)" />
      </g>
      <path
         sodipodi:nodetypes="cccccccccccccc"
         id="path3698"
         d="m 399.86218,512.38029 59.56026,0.95953 0,112.26571 -18.51197,9.59536 -0.22218,29.74958 -73.17501,0.95855 -0.65071,-37.42487 -112.18275,9.59536 -118.6603,43.17565 -43.993417,1.91808 122.394437,-83.47716 152.44203,-44.13667 0,-43.17912 32.99961,0 z"
         style="fill:#3a2710;fill-opacity:1;stroke:#000000;stroke-width:0.91633844px;stroke-linecap:butt;stroke-linejoin:miter;stroke-opacity:1" />
      <path
         transform="matrix(0.75750786,0,0,0.80427248,193.56382,123.76785)"
         d="m 398.74889,585.79889 c 0,58.42649 -52.22188,105.79052 -116.64083,105.79052 -64.41895,0 -116.64083,-47.36403 -116.64083,-105.79052 0,-58.42649 52.22188,-105.79052 116.64083,-105.79052 64.41895,0 116.64083,47.36403 116.64083,105.79052 z"
         sodipodi:ry="105.79052"
         sodipodi:rx="116.64083"
         sodipodi:cy="585.79889"
         sodipodi:cx="282.10806"
         id="path2818"
         style="fill:#ff0000;fill-opacity:0;stroke:#553c1a;stroke-width:8.39999962;stroke-miterlimit:4;stroke-opacity:1;stroke-dasharray:none"
         sodipodi:type="arc" />
      <path
         transform="matrix(0.75750786,0,0,0.80427248,164.79664,311.44526)"
         d="m 335.00331,349.80463 c 0,9.73775 -7.89401,17.63175 -17.63176,17.63175 -9.73775,0 -17.63175,-7.894 -17.63175,-17.63175 0,-9.73775 7.894,-17.63176 17.63175,-17.63176 9.73775,0 17.63176,7.89401 17.63176,17.63176 z"
         sodipodi:ry="17.631754"
         sodipodi:rx="17.631754"
         sodipodi:cy="349.80463"
         sodipodi:cx="317.37155"
         id="path3592"
         style="fill:#ff0000;fill-opacity:0;stroke:#492235;stroke-width:8.39999962;stroke-miterlimit:4;stroke-opacity:1;stroke-dasharray:none"
         sodipodi:type="arc" />
      <path
         id="path3594"
         d="m 405.26025,513.03242 0,163.28953"
         style="fill:none;stroke:#6a4b03;stroke-width:4.68323994;stroke-linecap:butt;stroke-linejoin:miter;stroke-miterlimit:4;stroke-opacity:1;stroke-dasharray:none" />
      <path
         id="path3596"
         d="m 322.10896,592.94965 170.62498,0"
         style="fill:none;stroke:#6a4b03;stroke-width:4.68323994;stroke-linecap:butt;stroke-linejoin:miter;stroke-miterlimit:4;stroke-opacity:1;stroke-dasharray:none" />
      <path
         id="path3598"
         d="m 345.13564,653.68846 119.8012,-120.41017 -1.6933,0.89523"
         style="fill:none;stroke:#6a4b03;stroke-width:4.68323994;stroke-linecap:butt;stroke-linejoin:miter;stroke-miterlimit:4;stroke-opacity:1;stroke-dasharray:none" />
      <path
         id="path3600"
         d="M 349.74846,531.9277 463.20858,658.40786"
         style="fill:none;stroke:#6a4b03;stroke-width:4.68323994;stroke-linecap:butt;stroke-linejoin:miter;stroke-miterlimit:4;stroke-opacity:1;stroke-dasharray:none" />
      <path
         id="path3608"
         d="m 400.27903,603.41252 c -7.95576,-5.15077 -7.56663,-17.01426 0.69461,-21.17649 4.91263,-2.4751 10.19399,-0.81053 13.31487,4.19657 6.19474,9.9388 -4.62662,23.05464 -14.00948,16.97992 z m 6.25605,-10.4864 c 0,-1.19986 -0.41167,-1.92833 -1.08972,-1.92833 -0.67805,0 -1.08972,0.72847 -1.08972,1.92833 0,1.19984 0.41167,1.92832 1.08972,1.92832 0.67805,0 1.08972,-0.72848 1.08972,-1.92832 z"
         style="fill:#2f0000;fill-opacity:0;stroke:#61440b;stroke-width:4.49141932;stroke-miterlimit:4;stroke-opacity:1;stroke-dasharray:none" />
      <path
         transform="matrix(1.0664365,0,0,0.9409734,355.1116,202.34621)"
         d="m 53.706292,414.12042 c 0,4.50214 -3.220329,8.15185 -7.192807,8.15185 -3.972478,0 -7.192807,-3.64971 -7.192807,-8.15185 0,-4.50214 3.220329,-8.15185 7.192807,-8.15185 3.972478,0 7.192807,3.64971 7.192807,8.15185 z"
         sodipodi:ry="8.1518478"
         sodipodi:rx="7.1928072"
         sodipodi:cy="414.12042"
         sodipodi:cx="46.513485"
         id="path3742"
         style="fill:#bba421;fill-opacity:1;fill-rule:nonzero;stroke:#6a4b03;stroke-width:1.89999998;stroke-miterlimit:4;stroke-opacity:0;stroke-dasharray:none"
         sodipodi:type="arc" />
    </g>
  </g>
</svg>
